<?xml version="1.0" encoding="UTF-8" standalone="no"?>
<!DOCTYPE svg PUBLIC "-//W3C//DTD SVG 1.1//EN"
 "http://www.w3.org/Graphics/SVG/1.1/DTD/svg11.dtd">
<!-- Generated by graphviz version 2.38.0 (20140413.2041)
 -->
<!-- Title: G Pages: 1 -->
<svg width="366pt" height="374pt"
 viewBox="0.00 0.00 366.00 374.00" xmlns="http://www.w3.org/2000/svg" xmlns:xlink="http://www.w3.org/1999/xlink">
<g id="graph0" class="graph" transform="scale(1 1) rotate(0) translate(4 370)">
<title>G</title>
<polygon fill="white" stroke="none" points="-4,4 -4,-370 362,-370 362,4 -4,4"/>
<g id="clust1" class="cluster"><title>cluster_Global</title>
<path fill="none" stroke="gray" d="M20,-8C20,-8 338,-8 338,-8 344,-8 350,-14 350,-20 350,-20 350,-346 350,-346 350,-352 344,-358 338,-358 338,-358 20,-358 20,-358 14,-358 8,-352 8,-346 8,-346 8,-20 8,-20 8,-14 14,-8 20,-8"/>
<text text-anchor="middle" x="179" y="-345.2" font-family="Times,serif" font-size="11.00" fill="gray">Global</text>
</g>
<g id="clust2" class="cluster"><title>cluster_\CLIP</title>
<path fill="none" stroke="gray" d="M28,-16C28,-16 330,-16 330,-16 336,-16 342,-22 342,-28 342,-28 342,-318 342,-318 342,-324 336,-330 330,-330 330,-330 28,-330 28,-330 22,-330 16,-324 16,-318 16,-318 16,-28 16,-28 16,-22 22,-16 28,-16"/>
<text text-anchor="middle" x="179" y="-317.2" font-family="Times,serif" font-size="11.00" fill="gray">CLIP</text>
</g>
<g id="clust3" class="cluster"><title>cluster_\CLIP\Input</title>
<path fill="none" stroke="gray" d="M39.5,-230C39.5,-230 319,-230 319,-230 325,-230 331,-236 331,-242 331,-242 331,-290 331,-290 331,-296 325,-302 319,-302 319,-302 39.5,-302 39.5,-302 33.5,-302 27.5,-296 27.5,-290 27.5,-290 27.5,-242 27.5,-242 27.5,-236 33.5,-230 39.5,-230"/>
<text text-anchor="middle" x="179.25" y="-289.2" font-family="Times,serif" font-size="11.00" fill="gray">Input</text>
</g>
<g id="clust4" class="cluster"><title>cluster_\CLIP\Error</title>
<path fill="none" stroke="gray" d="M39.5,-150C39.5,-150 319,-150 319,-150 325,-150 331,-156 331,-162 331,-162 331,-210 331,-210 331,-216 325,-222 319,-222 319,-222 39.5,-222 39.5,-222 33.5,-222 27.5,-216 27.5,-210 27.5,-210 27.5,-162 27.5,-162 27.5,-156 33.5,-150 39.5,-150"/>
<text text-anchor="middle" x="179.25" y="-209.2" font-family="Times,serif" font-size="11.00" fill="gray">Error</text>
</g>
<g id="clust5" class="cluster"><title>cluster_\CLIP\Output</title>
<path fill="none" stroke="gray" d="M36,-70C36,-70 322,-70 322,-70 328,-70 334,-76 334,-82 334,-82 334,-130 334,-130 334,-136 328,-142 322,-142 322,-142 36,-142 36,-142 30,-142 24,-136 24,-130 24,-130 24,-82 24,-82 24,-76 30,-70 36,-70"/>
<text text-anchor="middle" x="179" y="-129.2" font-family="Times,serif" font-size="11.00" fill="gray">Output</text>
</g>
<!-- \\CLIP\\Input\\DefaultInput -->
<g id="node1" class="node"><title>\\CLIP\\Input\\DefaultInput</title>
<polygon fill="none" stroke="black" points="323,-274 225,-274 225,-238 323,-238 323,-274"/>
<text text-anchor="middle" x="274" y="-253.2" font-family="Courier,monospace" font-size="11.00">DefaultInput</text>
</g>
<!-- \\CLIP\\Input\\InputInterface -->
<g id="node2" class="node"><title>\\CLIP\\Input\\InputInterface</title>
<polygon fill="none" stroke="black" points="146.5,-274 35.5,-274 35.5,-238 146.5,-238 146.5,-274"/>
<text text-anchor="middle" x="91" y="-253.2" font-family="Courier,monospace" font-size="11.00">InputInterface</text>
</g>
<!-- \\CLIP\\Input\\DefaultInput&#45;&gt;\\CLIP\\Input\\InputInterface -->
<g id="edge2" class="edge"><title>\\CLIP\\Input\\DefaultInput&#45;&gt;\\CLIP\\Input\\InputInterface</title>
<path fill="none" stroke="black" stroke-dasharray="1,5" d="M224.971,-256C204.082,-256 179.289,-256 156.803,-256"/>
<polygon fill="none" stroke="black" points="156.657,-252.5 146.657,-256 156.657,-259.5 156.657,-252.5"/>
</g>
<!-- \\CLIP\\Error\\DefaultError -->
<g id="node3" class="node"><title>\\CLIP\\Error\\DefaultError</title>
<polygon fill="none" stroke="black" points="323,-194 225,-194 225,-158 323,-158 323,-194"/>
<text text-anchor="middle" x="274" y="-173.2" font-family="Courier,monospace" font-size="11.00">DefaultError</text>
</g>
<!-- \\CLIP\\Error\\ErrorInterface -->
<g id="node4" class="node"><title>\\CLIP\\Error\\ErrorInterface</title>
<polygon fill="none" stroke="black" points="146.5,-194 35.5,-194 35.5,-158 146.5,-158 146.5,-194"/>
<text text-anchor="middle" x="91" y="-173.2" font-family="Courier,monospace" font-size="11.00">ErrorInterface</text>
</g>
<!-- \\CLIP\\Error\\DefaultError&#45;&gt;\\CLIP\\Error\\ErrorInterface -->
<g id="edge1" class="edge"><title>\\CLIP\\Error\\DefaultError&#45;&gt;\\CLIP\\Error\\ErrorInterface</title>
<path fill="none" stroke="black" stroke-dasharray="1,5" d="M224.971,-176C204.082,-176 179.289,-176 156.803,-176"/>
<polygon fill="none" stroke="black" points="156.657,-172.5 146.657,-176 156.657,-179.5 156.657,-172.5"/>
</g>
<!-- \\CLIP\\Output\\DefaultOutput -->
<g id="node5" class="node"><title>\\CLIP\\Output\\DefaultOutput</title>
<polygon fill="none" stroke="black" points="326,-114 222,-114 222,-78 326,-78 326,-114"/>
<text text-anchor="middle" x="274" y="-93.2" font-family="Courier,monospace" font-size="11.00">DefaultOutput</text>
</g>
<!-- \\CLIP\\Output\\OutputInterface -->
<g id="node6" class="node"><title>\\CLIP\\Output\\OutputInterface</title>
<polygon fill="none" stroke="black" points="150,-114 32,-114 32,-78 150,-78 150,-114"/>
<text text-anchor="middle" x="91" y="-93.2" font-family="Courier,monospace" font-size="11.00">OutputInterface</text>
</g>
<!-- \\CLIP\\Output\\DefaultOutput&#45;&gt;\\CLIP\\Output\\OutputInterface -->
<g id="edge3" class="edge"><title>\\CLIP\\Output\\DefaultOutput&#45;&gt;\\CLIP\\Output\\OutputInterface</title>
<path fill="none" stroke="black" stroke-dasharray="1,5" d="M221.617,-96C202.573,-96 180.667,-96 160.348,-96"/>
<polygon fill="none" stroke="black" points="160.207,-92.5001 150.207,-96 160.207,-99.5001 160.207,-92.5001"/>
</g>
<!-- \\CLIP\\Program -->
<g id="node7" class="node"><title>\\CLIP\\Program</title>
<polygon fill="none" stroke="black" points="316,-60 232,-60 232,-24 316,-24 316,-60"/>
<text text-anchor="start" x="240" y="-45.2" font-family="Courier,monospace" font-size="11.00">«abstract»</text>
<text text-anchor="start" x="250" y="-33.2" font-family="Courier,monospace" font-size="11.00">Program</text>
</g>
</g>
</svg>
